<?xml version="1.0" standalone="no"?><!DOCTYPE svg PUBLIC "-//W3C//DTD SVG 1.1//EN" "http://www.w3.org/Graphics/SVG/1.1/DTD/svg11.dtd"><svg xmlns:xlink="http://www.w3.org/1999/xlink" xmlns="http://www.w3.org/2000/svg" version="1.1" width="200" height="200" viewBox="0 0 200 200"><defs><style type="text/css"><![CDATA[
@font-face {
  font-family: "ifont";
  src: url("//at.alicdn.com/t/font_1442373896_4754455.eot?#iefix") format("embedded-opentype"), url("//at.alicdn.com/t/font_1442373896_4754455.woff") format("woff"), url("//at.alicdn.com/t/font_1442373896_4754455.ttf") format("truetype"), url("//at.alicdn.com/t/font_1442373896_4754455.svg#ifont") format("svg");
}

]]></style></defs><g class="transform-group"><g transform="scale(0.1953125, 0.1953125)"><path d="M511.913993 63.989249c-247.012263 0-447.924744 200.912481-447.924744 447.924744s200.912481 447.924744 447.924744 447.924744 447.924744-200.912481 447.924744-447.924744S758.926256 63.989249 511.913993 63.989249zM511.913993 895.677474c-211.577356 0-383.763481-172.186125-383.763481-383.763481 0-211.577356 172.014111-383.763481 383.763481-383.763481s383.763481 172.014111 383.763481 383.763481S723.491349 895.677474 511.913993 895.677474zM672.05913 511.913993l-159.973123 0L512.086007 288.123635c0-17.717453-14.277171-32.166639-31.994625-32.166639-17.717453 0-31.994625 14.449185-31.994625 32.166639l0 255.956996c0 17.717453 14.277171 31.994625 31.994625 31.994625l191.967747 0c17.717453 0 32.166639-14.277171 32.166639-31.994625C704.053754 526.191164 689.604569 511.913993 672.05913 511.913993z" fill="#272636"></path></g></g></svg>