<?xml version="1.0" standalone="no"?><!DOCTYPE svg PUBLIC "-//W3C//DTD SVG 1.1//EN" "http://www.w3.org/Graphics/SVG/1.1/DTD/svg11.dtd"><svg xmlns:xlink="http://www.w3.org/1999/xlink" xmlns="http://www.w3.org/2000/svg" version="1.1" width="200" height="200" viewBox="0 0 200 200"><defs><style type="text/css"><![CDATA[
@font-face {
  font-family: "ifont";
  src: url("//at.alicdn.com/t/font_1442373896_4754455.eot?#iefix") format("embedded-opentype"), url("//at.alicdn.com/t/font_1442373896_4754455.woff") format("woff"), url("//at.alicdn.com/t/font_1442373896_4754455.ttf") format("truetype"), url("//at.alicdn.com/t/font_1442373896_4754455.svg#ifont") format("svg");
}

]]></style></defs><g class="transform-group"><g transform="scale(0.1953125, 0.1953125)"><path d="M985.6 556.8l-102.4-121.6c38.4-38.4 70.4-83.2 96-134.4 6.4-12.8 0-32-12.8-44.8-12.8-6.4-32 0-44.8 12.8C844.8 428.8 684.8 524.8 512 524.8c-172.8 0-332.8-96-409.6-249.6C96 256 76.8 249.6 57.6 262.4 44.8 268.8 38.4 288 44.8 300.8c25.6 51.2 57.6 89.6 96 128L38.4 550.4C25.6 563.2 32 582.4 44.8 595.2 51.2 601.6 57.6 601.6 64 601.6c6.4 0 19.2-6.4 25.6-12.8l96-115.2c32 25.6 64 44.8 102.4 64l-51.2 147.2c-6.4 19.2 0 32 19.2 38.4 6.4 0 6.4 0 12.8 0 12.8 0 25.6-6.4 32-19.2l51.2-147.2C390.4 576 435.2 582.4 480 588.8l0 147.2C480 755.2 492.8 768 512 768c19.2 0 32-12.8 32-32L544 588.8c44.8 0 89.6-12.8 134.4-25.6l51.2 140.8c6.4 12.8 19.2 19.2 32 19.2 6.4 0 6.4 0 12.8 0 19.2-6.4 25.6-25.6 19.2-38.4l-51.2-147.2c38.4-19.2 70.4-38.4 102.4-64l102.4 121.6c6.4 6.4 12.8 12.8 25.6 12.8 6.4 0 12.8 0 19.2-6.4C992 588.8 998.4 569.6 985.6 556.8z" fill="#272636"></path></g></g></svg>