<?xml version="1.0" standalone="no"?><!DOCTYPE svg PUBLIC "-//W3C//DTD SVG 1.1//EN" "http://www.w3.org/Graphics/SVG/1.1/DTD/svg11.dtd"><svg xmlns:xlink="http://www.w3.org/1999/xlink" xmlns="http://www.w3.org/2000/svg" version="1.1" width="200" height="200" viewBox="0 0 200 200"><defs><style type="text/css"><![CDATA[
@font-face {
  font-family: "ifont";
  src: url("//at.alicdn.com/t/font_1442373896_4754455.eot?#iefix") format("embedded-opentype"), url("//at.alicdn.com/t/font_1442373896_4754455.woff") format("woff"), url("//at.alicdn.com/t/font_1442373896_4754455.ttf") format("truetype"), url("//at.alicdn.com/t/font_1442373896_4754455.svg#ifont") format("svg");
}

]]></style></defs><g class="transform-group"><g transform="scale(0.1953125, 0.1953125)"><path d="M510.718309 895.055233c-282.062074 0-510.667655-287.081391-510.667655-383.055233 0-126.741589 228.605581-383.040906 510.667655-383.040906 282.09482 0 510.699378 286.348704 510.699378 383.040906C1021.417687 612.994182 792.813129 895.055233 510.718309 895.055233L510.718309 895.055233zM510.718309 192.797028c-246.808152 0-446.892143 213.613122-446.892143 319.203996 0 79.984682 200.085014 319.218322 446.892143 319.218322 246.810199 0 446.863491-243.286955 446.863491-319.218322C957.580776 434.041464 757.528508 192.797028 510.718309 192.797028L510.718309 192.797028zM510.718309 703.543478c-105.791441 0-191.542454-85.747943-191.542454-191.542454 0-105.73209 85.751013-191.513802 191.542454-191.513802 105.731066 0 191.511755 85.781712 191.511755 191.513802C702.230064 617.795535 616.449375 703.543478 510.718309 703.543478L510.718309 703.543478zM510.718309 384.325156c-70.538543 0-127.672798 57.151651-127.672798 127.675868 0 70.538543 57.134255 127.673821 127.672798 127.673821 70.507844 0 127.675868-57.135278 127.675868-127.673821C638.393153 441.475783 581.226153 384.325156 510.718309 384.325156L510.718309 384.325156z" fill="#272636"></path></g></g></svg>