<?xml version="1.0" standalone="no"?><!DOCTYPE svg PUBLIC "-//W3C//DTD SVG 1.1//EN" "http://www.w3.org/Graphics/SVG/1.1/DTD/svg11.dtd"><svg xmlns:xlink="http://www.w3.org/1999/xlink" xmlns="http://www.w3.org/2000/svg" version="1.1" width="200" height="200" viewBox="0 0 200 200"><defs><style type="text/css"><![CDATA[
@font-face {
  font-family: "ifont";
  src: url("//at.alicdn.com/t/font_1442373896_4754455.eot?#iefix") format("embedded-opentype"), url("//at.alicdn.com/t/font_1442373896_4754455.woff") format("woff"), url("//at.alicdn.com/t/font_1442373896_4754455.ttf") format("truetype"), url("//at.alicdn.com/t/font_1442373896_4754455.svg#ifont") format("svg");
}

]]></style></defs><g class="transform-group"><g transform="scale(0.1953125, 0.1953125)"><path d="M223.962372 607.897867c-52.980346 0-95.983874-43.003528-95.983874-95.983874s43.003528-95.983874 95.983874-95.983874 95.983874 43.003528 95.983874 95.983874S276.942718 607.897867 223.962372 607.897867zM511.913993 607.897867c-52.980346 0-95.983874-43.003528-95.983874-95.983874s43.003528-95.983874 95.983874-95.983874 95.983874 43.003528 95.983874 95.983874S564.894339 607.897867 511.913993 607.897867zM800.037628 607.897867c-52.980346 0-95.983874-43.003528-95.983874-95.983874s43.003528-95.983874 95.983874-95.983874 95.983874 43.003528 95.983874 95.983874S852.84596 607.897867 800.037628 607.897867z" fill="#272636"></path></g></g></svg>