<?xml version="1.0" standalone="no"?><!DOCTYPE svg PUBLIC "-//W3C//DTD SVG 1.1//EN" "http://www.w3.org/Graphics/SVG/1.1/DTD/svg11.dtd"><svg xmlns:xlink="http://www.w3.org/1999/xlink" xmlns="http://www.w3.org/2000/svg" version="1.1" width="200" height="200" viewBox="0 0 200 200"><defs><style type="text/css"><![CDATA[
@font-face {
  font-family: "ifont";
  src: url("//at.alicdn.com/t/font_1442373896_4754455.eot?#iefix") format("embedded-opentype"), url("//at.alicdn.com/t/font_1442373896_4754455.woff") format("woff"), url("//at.alicdn.com/t/font_1442373896_4754455.ttf") format("truetype"), url("//at.alicdn.com/t/font_1442373896_4754455.svg#ifont") format("svg");
}

]]></style></defs><g class="transform-group"><g transform="scale(0.1953125, 0.1953125)"><path d="M509.090229 360.267227c64.11218 0 116.27112-52.157917 116.27112-116.269074 0-64.11218-52.15894-116.27112-116.27112-116.27112-64.111157 0-116.270097 52.15894-116.270097 116.27112C392.820132 308.10931 444.979072 360.267227 509.090229 360.267227zM509.090229 189.125405c30.257118 0 54.872748 24.615631 54.872748 54.872748 0 30.255071-24.615631 54.870702-54.872748 54.870702-30.256094 0-54.871725-24.615631-54.871725-54.870702C454.218504 213.740012 478.834134 189.125405 509.090229 189.125405zM729.133807 644.191718l-73.309656-206.763111c-6.465249-18.255783-19.635199-35.117822-37.081547-47.480384-17.460674-12.372795-37.719066-19.185968-57.044204-19.185968l-99.840916 0c-39.720653 0-80.700997 27.907607-95.326089 64.919569l-82.499969 208.853725c-13.249769 33.536814-10.920724 67.372433 6.391571 92.827175 15.32708 22.533202 41.086767 36.566824 71.834049 39.508829l0 32.783661c0 47.761794 38.85903 86.617753 86.621846 86.617753 24.746614 0 47.103808-10.432607 62.903655-27.129894 15.798824 16.696264 38.158065 27.129894 62.905702 27.129894 47.7577 0 86.611613-38.85596 86.611613-86.617753l0-34.972513c24.470321-5.348821 45.045939-18.277272 58.437947-37.235043C737.703997 712.017476 741.129003 678.026314 729.133807 644.191718zM669.59069 702.021821c-6.391571 9.046027-18.661012 14.028505-34.55091 14.028505l-35.139312 0 0 93.604888c0 13.906731-11.310603 25.219381-25.213241 25.219381-13.907755 0-25.221428-11.31265-25.221428-25.219381l0-93.604888-75.367525 0 0 93.604888c0 13.906731-11.313673 25.219381-25.219381 25.219381-13.908778 0-25.223474-11.31265-25.223474-25.219381l0-93.604888-49.115628 0c-15.70775 0-27.550473-4.694929-33.348526-13.219069-5.78168-8.502651-5.802146-21.193695-0.056282-35.737946l82.498946-208.852702c5.298679-13.406335 23.87271-26.081005 38.223556-26.081005l99.840916 0c13.942547 0 31.56081 12.522198 36.254715 25.77606l73.312726 206.77232C676.584987 679.713746 675.990446 692.964538 669.59069 702.021821z" fill="#272636"></path></g></g></svg>