<?xml version="1.0" standalone="no"?><!DOCTYPE svg PUBLIC "-//W3C//DTD SVG 1.1//EN" "http://www.w3.org/Graphics/SVG/1.1/DTD/svg11.dtd"><svg xmlns:xlink="http://www.w3.org/1999/xlink" xmlns="http://www.w3.org/2000/svg" version="1.1" width="200" height="200" viewBox="0 0 200 200"><defs><style type="text/css"><![CDATA[
@font-face {
  font-family: "ifont";
  src: url("//at.alicdn.com/t/font_1442373896_4754455.eot?#iefix") format("embedded-opentype"), url("//at.alicdn.com/t/font_1442373896_4754455.woff") format("woff"), url("//at.alicdn.com/t/font_1442373896_4754455.ttf") format("truetype"), url("//at.alicdn.com/t/font_1442373896_4754455.svg#ifont") format("svg");
}

]]></style></defs><g class="transform-group"><g transform="scale(0.1953125, 0.1953125)"><path d="M273.11 256.11c18.291 0 33.119-14.829 33.119-33.119v-132.471c0-18.291-14.829-33.119-33.119-33.119s-33.119 14.829-33.119 33.119v132.471c0 18.291 14.83 33.119 33.119 33.119zM748.682 256.11c18.291 0 33.119-14.829 33.119-33.119v-132.471c0-18.291-14.829-33.119-33.119-33.119s-33.119 14.829-33.119 33.119v132.471c0 18.291 14.829 33.119 33.119 33.119zM876.294 168.681h-28.259c-18.291 0-33.119 14.829-33.119 33.119s14.829 33.119 33.119 33.119h1.765c51.213 0 92.729 41.517 92.729 92.729v476.895c0 51.213-41.517 92.729-92.729 92.729h-675.601c-51.213 0-92.729-41.517-92.729-92.729v-476.895c0-51.065 41.28-92.48 92.29-92.719v-0.012c18.291 0 33.119-14.829 33.119-33.119s-14.829-33.119-33.119-33.119h-26.053c-73.163 0-132.471 59.308-132.471 132.471v529.883c0 73.163 59.308 132.471 132.471 132.471h728.59c73.163 0 132.471-59.308 132.471-132.471v-529.883c0-73.162-59.309-132.471-132.471-132.471zM372.463 234.915h276.865c18.291 0 33.119-14.829 33.119-33.119s-14.829-33.119-33.119-33.119h-276.865c-18.291 0-33.119 14.829-33.119 33.119s14.829 33.119 33.119 33.119zM649.329 301.151c-18.291 0-33.119 14.829-33.119 33.119v463.648c0 18.291 14.829 33.119 33.119 33.119s33.119-14.829 33.119-33.119v-463.648c0-18.291-14.83-33.119-33.119-33.119zM548.279 450.179c0-82.307-66.723-149.029-149.029-149.029-40.092 0-76.474 15.842-103.259 41.595-6.752 6.062-10.996 14.853-10.996 24.642 0 18.291 14.829 33.119 33.119 33.119 9.553 0 18.154-4.049 24.199-10.519l0.001 0.001 0.012 0.11c14.838-14.064 34.867-22.711 56.929-22.711 45.726 0 82.795 37.068 82.795 82.795 0 45.728-37.068 82.795-82.795 82.795-1.143 0-2.273 0.058-3.386 0.171-16.699 1.695-29.731 15.801-29.731 32.948 0 18.291 14.829 33.119 33.119 33.119v0.001c45.726 0 82.795 37.068 82.795 82.794 0 45.729-37.068 82.795-82.795 82.795-22.431 0-42.764-8.933-57.674-23.419l-0.021 0.027c-5.994-6.007-14.285-9.726-23.442-9.726-18.291 0-33.119 14.825-33.119 33.119 0 9.809 4.268 18.62 11.044 24.682 26.781 25.727 63.143 41.554 103.213 41.554 82.307 0 149.029-66.721 149.029-149.029 0-46.82-21.597-88.591-55.366-115.911 33.769-27.322 55.365-69.091 55.365-115.911z" fill="#272636"></path></g></g></svg>