<?xml version="1.0" standalone="no"?><!DOCTYPE svg PUBLIC "-//W3C//DTD SVG 1.1//EN" "http://www.w3.org/Graphics/SVG/1.1/DTD/svg11.dtd"><svg xmlns:xlink="http://www.w3.org/1999/xlink" xmlns="http://www.w3.org/2000/svg" version="1.1" width="200" height="200" viewBox="0 0 200 200"><defs><style type="text/css"><![CDATA[
@font-face {
  font-family: "ifont";
  src: url("//at.alicdn.com/t/font_1442373896_4754455.eot?#iefix") format("embedded-opentype"), url("//at.alicdn.com/t/font_1442373896_4754455.woff") format("woff"), url("//at.alicdn.com/t/font_1442373896_4754455.ttf") format("truetype"), url("//at.alicdn.com/t/font_1442373896_4754455.svg#ifont") format("svg");
}

]]></style></defs><g class="transform-group"><g transform="scale(0.1953125, 0.1953125)"><path d="M800.037628 960.010751 223.962372 960.010751c-52.980346 0-95.983874-43.003528-95.983874-95.983874l0-639.892491c0-52.980346 43.003528-95.983874 95.983874-95.983874l447.924744 0c17.717453 0 31.994625 14.277171 31.994625 31.994625s-14.277171 31.994625-31.994625 31.994625L223.962372 192.139761c-17.545439 0-31.994625 14.449185-31.994625 31.994625l0 639.892491c0 17.717453 14.449185 31.994625 31.994625 31.994625l575.903242 0c17.717453 0 31.994625-14.277171 31.994625-31.994625L831.860239 351.94087c0-17.717453 14.277171-31.994625 31.994625-31.994625 17.717453 0 31.994625 14.277171 31.994625 31.994625l0 511.913993C896.021502 916.835209 852.84596 960.010751 800.037628 960.010751zM612.026205 447.924744c-8.256677 0-16.341341-3.096254-22.705863-9.460776-12.55703-12.55703-12.55703-32.682681 0-45.239711L907.374433 75.34218c12.55703-12.55703 32.682681-12.55703 45.239711 0s12.55703 32.682681 0 45.239711L634.560054 438.635982C628.367546 444.82849 620.110868 447.924744 612.026205 447.924744zM479.919368 447.924744 287.951621 447.924744c-17.717453 0-31.994625-14.277171-31.994625-31.994625s14.277171-31.994625 31.994625-31.994625L479.919368 383.935495c17.717453 0 31.994625 14.277171 31.994625 31.994625C511.913993 433.647573 497.636822 447.924744 479.919368 447.924744zM672.05913 639.892491 287.951621 639.892491c-17.717453 0-31.994625-14.277171-31.994625-31.994625s14.277171-31.994625 31.994625-31.994625l383.935495 0c17.717453 0 31.994625 14.277171 31.994625 31.994625S689.604569 639.892491 672.05913 639.892491z" fill="#272636"></path></g></g></svg>