<?xml version="1.0" standalone="no"?><!DOCTYPE svg PUBLIC "-//W3C//DTD SVG 1.1//EN" "http://www.w3.org/Graphics/SVG/1.1/DTD/svg11.dtd"><svg xmlns:xlink="http://www.w3.org/1999/xlink" xmlns="http://www.w3.org/2000/svg" version="1.1" width="200" height="200" viewBox="0 0 200 200"><defs><style type="text/css"><![CDATA[
@font-face {
  font-family: "ifont";
  src: url("//at.alicdn.com/t/font_1442373896_4754455.eot?#iefix") format("embedded-opentype"), url("//at.alicdn.com/t/font_1442373896_4754455.woff") format("woff"), url("//at.alicdn.com/t/font_1442373896_4754455.ttf") format("truetype"), url("//at.alicdn.com/t/font_1442373896_4754455.svg#ifont") format("svg");
}

]]></style></defs><g class="transform-group"><g transform="scale(0.1953125, 0.1953125)"><path d="M511.913993 607.897867c-105.960692 0-191.967747-86.179069-191.967747-191.967747s86.179069-191.967747 191.967747-191.967747 191.967747 86.179069 191.967747 191.967747S617.874685 607.897867 511.913993 607.897867zM511.913993 287.951621c-70.525785 0-127.978498 57.452713-127.978498 127.978498s57.452713 127.978498 127.978498 127.978498 127.978498-57.452713 127.978498-127.978498S582.611792 287.951621 511.913993 287.951621zM511.913993 960.010751c-7.912649 0-15.825298-2.92424-22.017806-8.77272-12.729044-12.213002-13.245087-32.510667-1.032085-45.239711 86.523098-90.651436 311.173526-355.553166 311.173526-489.896187 0-158.769024-129.182597-287.951621-287.951621-287.951621-158.769024 0-287.951621 129.182597-287.951621 287.951621 0 75.686209 72.589955 206.072904 204.180749 367.42214 11.180917 13.761129 9.116748 33.88678-4.472367 45.067697-13.761129 11.180917-33.88678 9.116748-45.067697-4.472367C233.595162 646.084999 159.973123 508.989753 159.973123 415.930119 159.973123 221.898203 317.882076 63.989249 511.913993 63.989249S864.026877 221.898203 864.026877 415.930119c0 187.323366-315.473879 519.998656-328.890979 534.103813C528.771376 956.570469 520.514698 960.010751 511.913993 960.010751z" fill="#272636"></path></g></g></svg>