<?xml version="1.0" standalone="no"?><!DOCTYPE svg PUBLIC "-//W3C//DTD SVG 1.1//EN" "http://www.w3.org/Graphics/SVG/1.1/DTD/svg11.dtd"><svg xmlns:xlink="http://www.w3.org/1999/xlink" xmlns="http://www.w3.org/2000/svg" version="1.1" width="200" height="200" viewBox="0 0 200 200"><defs><style type="text/css"><![CDATA[
@font-face {
  font-family: "ifont";
  src: url("//at.alicdn.com/t/font_1442373896_4754455.eot?#iefix") format("embedded-opentype"), url("//at.alicdn.com/t/font_1442373896_4754455.woff") format("woff"), url("//at.alicdn.com/t/font_1442373896_4754455.ttf") format("truetype"), url("//at.alicdn.com/t/font_1442373896_4754455.svg#ifont") format("svg");
}

]]></style></defs><g class="transform-group"><g transform="scale(0.1953125, 0.1953125)"><path d="M896 704c-17.695686 0-31.99914 14.303454-31.99914 31.99914l0 128L160.00086 863.99914l0-128c0-17.695686-14.336138-31.99914-32.00086-31.99914s-32.00086 14.303454-32.00086 31.99914l0 160.00086c0 17.695686 14.336138 31.99914 32.00086 31.99914l768 0c17.695686 0 32.00086-14.303454 32.00086-31.99914l0-160.00086C928.00086 718.303454 913.695686 704 896 704zM227.579 530.662l259.11 259.293c6.368 6.399 14.689 9.471 22.977 9.408 1.12 0.096 2.080 0.64 3.2 0.64 4.673 0 9.024-1.088 13.024-2.88 4.032-1.536 7.872-3.872 11.137-7.135l259.329-259.124c12.513-12.48 12.544-32.735 0.033-45.248-6.24-6.272-14.432-9.407-22.656-9.408-8.193 0-16.352 3.136-22.624 9.344l-206.24 206.162v-563.713c0-17.696-14.336-31.999-32.001-31.999s-32.001 14.303-32.001 31.999v565.281l-207.91-207.74c-6.241-6.272-14.496-9.44-22.688-9.44s-16.32 3.103-22.56 9.311c-12.575 12.449-12.607 32.737-0.127 45.248z" fill="#272636"></path></g></g></svg>