<?xml version="1.0" standalone="no"?><!DOCTYPE svg PUBLIC "-//W3C//DTD SVG 1.1//EN" "http://www.w3.org/Graphics/SVG/1.1/DTD/svg11.dtd"><svg xmlns:xlink="http://www.w3.org/1999/xlink" xmlns="http://www.w3.org/2000/svg" version="1.1" width="200" height="200" viewBox="0 0 200 200"><defs><style type="text/css"><![CDATA[
@font-face {
  font-family: "ifont";
  src: url("//at.alicdn.com/t/font_1442373896_4754455.eot?#iefix") format("embedded-opentype"), url("//at.alicdn.com/t/font_1442373896_4754455.woff") format("woff"), url("//at.alicdn.com/t/font_1442373896_4754455.ttf") format("truetype"), url("//at.alicdn.com/t/font_1442373896_4754455.svg#ifont") format("svg");
}

]]></style></defs><g class="transform-group"><g transform="scale(0.1953125, 0.1953125)"><path d="M885.700655 681.519906c-13.761129-11.180917-33.88678-8.944734-44.895683 4.816395-11.180917 13.761129-8.944734 33.88678 4.816395 44.895683 22.361834 18.061482 52.464304 71.729884 52.464304 102.004368 0 54.012431-43.863598 97.876029-97.876029 97.876029-31.82261 0-61.753066-15.48127-80.158576-41.455401-2.236183-3.096254-61.581052-88.587267-96.155888-125.742315-61.065009-65.193348-163.585419-61.581052-163.929447-61.581052C330.267092 675.671426 241.335797 570.398791 257.677138 462.717957c8.084663-53.668402 40.939358-100.800269 92.715606-132.450865 53.496388-32.682681 120.237863-45.239711 188.011423-34.918864 67.77356 10.148833 127.806484 41.799429 169.261885 88.759281 40.079288 45.583739 57.624727 100.112212 49.540064 153.952629-3.096254 20.641693-9.804804 40.423316-20.297665 58.828826-8.600706 15.309256-3.268268 34.918864 12.213002 43.51957 15.309256 8.600706 34.918864 3.268268 43.51957-12.213002 14.105157-25.286074 23.565933-52.464304 27.694272-80.674618 11.008903-72.761969-12.040988-145.695952-64.84932-205.728876-51.432219-58.312783-125.226272-97.359987-207.793046-109.745003-82.566773-12.385016-164.617504 3.096254-231.01495 43.691584-68.117588 41.799429-111.637158 104.756593-122.474047 177.518562-21.32975 141.223585 89.619352 278.318831 252.688728 312.033597 2.236183 0.516042 89.275323-1.032085 130.042668 42.659499 35.778935 38.187133 90.479422 121.269948 94.607761 123.85016 30.446498 39.907274 77.922392 63.645221 128.494541 63.645221 89.275323 0 161.865278-72.589955 161.865278-161.865278C962.07492 781.632118 921.823618 710.418276 885.700655 681.519906zM64.333277 320.806316c0 35.262893 28.726356 63.989249 63.989249 63.989249s63.989249-28.726356 63.989249-63.989249-28.726356-63.989249-63.989249-63.989249S64.333277 285.543423 64.333277 320.806316zM272.814379 228.262725c-11.008903 0-22.017806-3.78431-30.96254-11.352931-19.953637-17.029397-22.705863-46.787838-6.020494-67.085503 3.956325-4.816395 98.736099-115.593482 277.114732-79.986561 25.974131 5.160423 42.831514 30.446498 37.67109 56.420628s-30.446498 43.003528-56.420628 37.67109c-120.753906-24.25399-182.334957 44.723669-184.915169 47.647909C299.820595 222.586259 286.403494 228.262725 272.814379 228.262725z" fill="#272636"></path></g></g></svg>