<?xml version="1.0" standalone="no"?><!DOCTYPE svg PUBLIC "-//W3C//DTD SVG 1.1//EN" "http://www.w3.org/Graphics/SVG/1.1/DTD/svg11.dtd"><svg xmlns:xlink="http://www.w3.org/1999/xlink" xmlns="http://www.w3.org/2000/svg" version="1.1" width="200" height="200" viewBox="0 0 200 200"><defs><style type="text/css"><![CDATA[
@font-face {
  font-family: "ifont";
  src: url("//at.alicdn.com/t/font_1442373896_4754455.eot?#iefix") format("embedded-opentype"), url("//at.alicdn.com/t/font_1442373896_4754455.woff") format("woff"), url("//at.alicdn.com/t/font_1442373896_4754455.ttf") format("truetype"), url("//at.alicdn.com/t/font_1442373896_4754455.svg#ifont") format("svg");
}

]]></style></defs><g class="transform-group"><g transform="scale(0.1953125, 0.1953125)"><path d="M950.894003 306.357131c7.396607 3.956325 12.901058 9.288762 16.513355 16.169326 3.612296 6.880564 5.504452 13.761129 5.504452 20.641693 0 6.880564-1.892155 13.245087-5.504452 19.093566-3.612296 5.84848-8.77272 10.148833-15.48127 12.729044-7.396607 2.580212-12.729044 6.364522-15.997312 11.352931-3.268268 4.816395-5.160423 10.320847-5.504452 16.169326-0.344028 5.84848 1.032085 11.524945 3.956325 17.201411 2.92424 5.504452 7.912649 10.320847 14.449185 14.277171 6.70855 3.956325 11.524945 9.116748 14.449185 15.653284 2.92424 6.536536 4.300353 13.073072 3.956325 19.609609-0.344028 6.536536-2.064169 12.55703-4.988409 18.233496-2.92424 5.504452-7.568621 8.600706-13.417101 9.288762-5.332437 1.376113-9.116748 4.128339-11.524945 8.428691-2.408198 4.300353-3.440282 8.944734-3.440282 14.277171 0 5.160423 1.204099 10.320847 3.440282 15.137242 2.408198 4.988409 6.192508 8.428691 11.524945 10.320847 5.332437 1.892155 9.460776 5.84848 12.55703 11.69696 2.92424 5.84848 4.644381 12.040988 4.988409 18.577524 0.344028 6.536536-0.516042 12.729044-2.408198 18.577524-2.064169 5.84848-4.988409 10.148833-8.944734 12.729044-13.417101 7.912649-19.953637 16.685369-19.953637 26.490173s6.70855 19.609609 19.953637 29.414413c2.580212 1.892155 5.160423 5.504452 7.568621 10.836889 2.408198 5.160423 3.440282 10.492861 3.440282 15.653284 0 5.160423-1.376113 9.804804-3.956325 13.761129-2.752226 3.956325-7.396607 5.84848-13.933143 5.84848l-54.012431 0c-3.956325 0-6.192508-0.344028-6.536536-1.032085-0.344028-0.688056 0.172014-1.720141 1.548127-3.440282 1.376113-1.720141 2.92424-3.440282 4.988409-5.332437 2.064169-1.892155 3.612296-4.300353 4.988409-6.880564 3.268268-9.116748 3.268268-17.029397 0-23.565933-3.440282-6.536536-8.944734-12.040988-17.029397-16.685369-5.332437-2.580212-9.116748-6.70855-11.524945-12.213002-2.408198-5.504452-3.268268-11.352931-3.096254-17.201411 0.344028-5.84848 1.548127-11.180917 3.440282-15.653284 2.064169-4.644381 4.988409-7.912649 8.944734-9.804804 5.332437-1.892155 9.288762-5.504452 12.040988-10.836889 2.580212-5.160423 3.956325-10.836889 3.956325-16.685369 0-5.84848-1.032085-11.352931-2.92424-16.169326-2.064169-4.988409-4.988409-8.256677-8.944734-10.320847-5.332437-2.580212-9.460776-6.536536-12.55703-11.69696-2.92424-5.160423-4.472367-11.180917-4.472367-17.717453 0-6.536536 1.376113-12.901058 3.956325-19.093566 2.580212-6.192508 7.052579-11.352931 13.073072-15.137242 3.956325-2.580212 7.396607-6.192508 9.976818-10.836889 2.752226-4.644381 4.128339-9.460776 4.472367-14.793214 0.344028-5.160423-0.688056-10.320847-2.92424-15.137242-2.408198-4.988409-6.536536-8.944734-12.55703-12.213002-6.70855-3.268268-11.524945-8.084663-14.449185-14.277171-3.096254-6.192508-4.472367-12.55703-4.472367-19.093566 0-6.536536 1.548127-12.729044 4.472367-18.577524 2.92424-5.84848 7.224593-10.492861 12.55703-13.761129 11.352931-5.84848 17.545439-13.933143 18.577524-24.081975 1.032085-10.148833 0.172014-19.437594-2.580212-28.0383-2.064169-6.536536-6.020494-12.385016-12.040988-17.717453-6.020494-5.160423-13.589115-7.912649-23.049891-7.912649l-479.919368 0 0-77.578364 563.002184 0c4.644381 0 8.600706 1.720141 12.040988 4.816395 3.268268 3.268268 5.504452 7.224593 6.536536 11.868974 1.032085 4.644381 0.688056 9.288762-1.032085 14.277171-1.720141 4.816395-4.816395 8.944734-9.460776 12.213002-3.956325 3.268268-7.568621 7.568621-10.492861 12.729044-2.92424 5.160423-4.644381 10.664875-4.988409 16.169326-0.344028 5.504452 0.516042 11.180917 2.580212 16.685369C941.949269 299.648581 945.561566 303.776919 950.894003 306.357131zM133.998992 258.365194c0-13.073072 5.160423-25.11406 15.48127-36.294977 10.320847-11.180917 21.501764-16.685369 33.542752-16.685369l137.955317 0L320.97833 283.823282 133.998992 283.823282 133.998992 258.365194zM228.090711 818.615152l-55.044515 0c-14.621199 0-29.242399-0.172014-43.51957-0.516042-14.277171-0.344028-24.081975-0.516042-29.414413-0.516042-18.061482 0.688056-30.618512-2.236183-38.015118-8.77272-7.396607-6.536536-11.008903-18.921552-11.008903-37.327062l0-141.223585c0-7.224593 1.204099-12.55703 3.440282-16.169326 2.408198-3.612296 7.224593-6.020494 14.449185-7.396607 2.752226 0 6.364522-1.032085 11.008903-2.92424 4.644381-1.892155 9.288762-4.988409 13.933143-9.288762 4.644381-4.300353 8.600706-9.804804 12.040988-16.685369 3.268268-6.880564 4.988409-15.137242 4.988409-24.942046 0-15.137242-4.128339-26.834201-12.55703-35.262893-8.256677-8.600706-17.201411-13.417101-26.490173-14.793214-7.396607-1.376113-12.729044-3.440282-15.997312-6.364522-3.268268-2.92424-4.988409-8.084663-4.988409-15.137242l0-104.068537c0-17.717453 2.92424-30.274483 8.944734-37.843104 6.020494-7.568621 19.26558-11.352931 39.907274-11.352931l127.978498 0L227.746682 818.615152zM828.419956 334.395431c2.92424 4.300353 4.644381 8.944734 4.988409 14.277171 0.344028 5.160423-0.860071 10.492861-3.440282 15.653284-2.580212 5.160423-7.052579 8.77272-13.073072 10.836889-6.020494 1.892155-10.836889 5.160423-14.449185 9.804804-3.612296 4.644381-5.84848 9.63279-6.536536 15.137242-0.688056 5.504452 0.688056 11.008903 3.956325 16.169326 3.268268 5.332437 8.944734 9.116748 17.029397 11.69696 6.020494 2.580212 10.836889 6.536536 14.449185 11.69696 3.612296 5.160423 5.676466 10.664875 6.020494 16.169326 0.344028 5.504452-1.032085 10.836889-3.956325 15.653284-2.92424 4.988409-7.912649 8.256677-14.449185 10.320847-7.912649 1.892155-14.105157 5.676466-18.577524 11.352931-4.300353 5.504452-6.70855 11.352931-7.052579 17.201411-0.344028 5.84848 1.376113 11.868974 4.988409 17.717453 3.612296 5.84848 9.116748 10.148833 16.513355 12.729044 6.70855 2.580212 11.69696 6.536536 14.965228 11.69696 3.268268 5.160423 5.160423 10.836889 5.504452 16.685369 0.344028 5.84848-0.860071 11.524945-3.440282 16.685369-2.580212 5.160423-6.70855 9.116748-12.040988 11.868974-16.685369 7.912649-25.286074 17.373425-25.974131 28.382328-0.688056 11.180917 5.676466 19.953637 19.093566 26.490173 6.020494 2.580212 10.836889 6.70855 14.449185 12.213002 3.612296 5.504452 5.676466 11.524945 6.020494 17.717453 0.344028 6.192508-0.860071 11.69696-3.440282 16.685369-2.580212 4.816395-7.052579 8.256677-12.901058 10.320847-8.084663 1.892155-14.105157 5.504452-18.577524 10.836889-4.300353 5.160423-6.70855 10.836889-7.052579 16.685369-0.344028 5.84848 1.376113 11.69696 4.988409 17.717453 3.612296 5.84848 9.460776 10.836889 17.545439 14.793214 5.332437 2.580212 9.116748 6.70855 11.524945 12.213002 2.408198 5.504452 3.096254 11.008903 2.580212 16.169326-0.688056 5.160423-2.580212 9.976818-5.504452 14.277171-2.92424 4.300353-7.224593 6.364522-12.55703 6.364522l-522.922896 0L287.09155 328.030909l528.94339 0C821.195364 328.030909 825.495716 330.095078 828.419956 334.395431zM498.152864 502.281203c-1.032085-43.863598-22.361834-66.225433-64.333277-67.085503-42.831514 1.032085-64.333277 23.393919-64.333277 67.085503l0 17.201411c1.892155 41.971443 23.393919 63.301193 64.333277 64.333277 40.939358-0.860071 62.269108-22.361834 64.333277-64.333277L498.152864 502.281203zM603.4255 425.218881c-10.664875-1.892155-19.953637 6.192508-27.694272 24.25399l-116.969595 231.530993c-2.92424 6.70855-4.300353 11.352931-4.300353 14.277171 2.92424 6.70855 8.77272 11.008903 17.545439 12.901058 8.77272 0.860071 18.061482-6.192508 27.694272-21.501764l116.969595-231.530993c2.92424-6.70855 4.300353-11.868974 4.300353-15.653284C618.046699 431.927432 612.198219 427.111036 603.4255 425.218881zM705.773896 618.046699c-1.032085-43.863598-22.361834-66.225433-64.333277-67.085503-42.831514 1.032085-64.333277 23.393919-64.333277 67.085503l0 17.201411c1.032085 40.079288 22.361834 60.548967 64.333277 61.409037 40.939358-1.032085 62.269108-21.501764 64.333277-61.409037L705.773896 618.046699zM641.440618 669.478918c-14.621199 1.032085-21.501764-13.761129-20.469679-44.207626-1.032085-28.554342 5.84848-42.831514 20.469679-42.831514 13.589115-0.860071 19.953637 13.417101 18.921552 42.831514C661.394255 656.57786 655.029733 671.371073 641.440618 669.478918zM433.819587 552.337309c-14.621199 1.892155-20.985721-12.385016-18.921552-42.831514-1.892155-30.446498 4.472367-45.239711 18.921552-44.207626 13.589115 0 20.469679 14.793214 20.469679 44.207626C454.289266 538.920208 447.408701 553.369394 433.819587 552.337309z" fill="#272636"></path></g></g></svg>