<?xml version="1.0" standalone="no"?><!DOCTYPE svg PUBLIC "-//W3C//DTD SVG 1.1//EN" "http://www.w3.org/Graphics/SVG/1.1/DTD/svg11.dtd"><svg xmlns:xlink="http://www.w3.org/1999/xlink" xmlns="http://www.w3.org/2000/svg" version="1.1" width="200" height="200" viewBox="0 0 200 200"><defs><style type="text/css"><![CDATA[
@font-face {
  font-family: "ifont";
  src: url("//at.alicdn.com/t/font_1442373896_4754455.eot?#iefix") format("embedded-opentype"), url("//at.alicdn.com/t/font_1442373896_4754455.woff") format("woff"), url("//at.alicdn.com/t/font_1442373896_4754455.ttf") format("truetype"), url("//at.alicdn.com/t/font_1442373896_4754455.svg#ifont") format("svg");
}

]]></style></defs><g class="transform-group"><g transform="scale(0.1953125, 0.1953125)"><path d="M351.94087 575.903242l-127.978498 0c-17.717453 0-31.994625-14.277171-31.994625-31.994625 0-17.717453 14.277171-31.994625 31.994625-31.994625L319.946246 511.913993l0-95.983874c0-17.717453 14.277171-31.994625 31.994625-31.994625 17.717453 0 31.994625 14.277171 31.994625 31.994625l0 127.978498C383.935495 561.626071 369.658324 575.903242 351.94087 575.903242zM702.161599 666.898707c-61.92508 0-113.701327 43.347556-127.290442 101.144297l-123.85016 0c-13.589115-57.968755-65.365362-101.144297-127.290442-101.144297-72.245926 0-131.074752 58.828826-131.074752 131.074752 0 72.417941 58.828826 131.246766 131.074752 131.246766 60.376953 0 110.777087-41.283387 125.914329-97.015958l126.430371 0c15.137242 55.732572 65.537376 97.015958 126.086343 97.015958 72.245926 0 131.074752-58.828826 131.074752-131.074752S774.407526 666.898707 702.161599 666.898707zM323.730556 865.058962c-36.983034 0-67.085503-30.102469-67.085503-67.257517 0-36.983034 30.102469-67.085503 67.085503-67.085503 36.983034 0 67.085503 30.102469 67.085503 67.085503C390.816059 834.956493 360.71359 865.058962 323.730556 865.058962zM702.161599 864.886948c-36.983034 0-67.085503-30.102469-67.085503-67.085503s30.102469-67.085503 67.085503-67.085503c36.983034 0 67.085503 30.102469 67.085503 67.085503S739.144633 864.886948 702.161599 864.886948zM864.026877 95.983874 399.760793 95.983874c-44.035612 0-79.814547 35.778935-79.814547 79.814547l0 92.543591L125.398287 366.046027c-1.376113 0.688056-2.752226 1.548127-3.956325 2.408198C85.318999 393.912313 65.365362 433.475559 65.365362 479.919368l0 322.010415c0 17.717453 14.277171 31.994625 31.994625 31.994625s31.994625-14.277171 31.994625-31.994625L129.354611 479.919368c0-24.942046 9.116748-44.551655 27.006215-57.968755L366.390055 316.677977c1.376113-0.688056 2.408198-2.064169 3.612296-2.92424 1.892155-1.376113 3.78431-2.580212 5.332437-4.128339 1.376113-1.548127 2.408198-3.268268 3.440282-4.988409s2.236183-3.268268 2.92424-5.332437c0.860071-2.236183 1.032085-4.472367 1.376113-6.70855 0.172014-1.548127 0.860071-2.92424 0.860071-4.472367l0-112.325214c0-8.600706 7.052579-15.825298 15.825298-15.825298l464.266084 0c17.545439 0 31.994625 14.621199 31.994625 32.510667l0 607.381824c0 17.717453 14.277171 31.994625 31.994625 31.994625s31.994625-14.277171 31.994625-31.994625L960.010751 192.48379C960.010751 139.33143 916.835209 95.983874 864.026877 95.983874z" fill="#272636"></path></g></g></svg>