<?xml version="1.0" standalone="no"?><!DOCTYPE svg PUBLIC "-//W3C//DTD SVG 1.1//EN" "http://www.w3.org/Graphics/SVG/1.1/DTD/svg11.dtd"><svg xmlns:xlink="http://www.w3.org/1999/xlink" xmlns="http://www.w3.org/2000/svg" version="1.1" width="200" height="200" viewBox="0 0 200 200"><defs><style type="text/css"><![CDATA[
@font-face {
  font-family: "ifont";
  src: url("//at.alicdn.com/t/font_1442373896_4754455.eot?#iefix") format("embedded-opentype"), url("//at.alicdn.com/t/font_1442373896_4754455.woff") format("woff"), url("//at.alicdn.com/t/font_1442373896_4754455.ttf") format("truetype"), url("//at.alicdn.com/t/font_1442373896_4754455.svg#ifont") format("svg");
}

]]></style></defs><g class="transform-group"><g transform="scale(0.1953125, 0.1953125)"><path d="M518.966571 653.825634l0-6.70855c89.791366-64.161263 89.447337-175.282379 89.275323-265.589787l0-13.589115c0-130.730724-78.782463-208.653116-210.717285-208.653116l-6.70855 0c-126.602385 0-196.2681 74.138082-196.2681 208.653116 0 67.945574 0 205.728876 103.552495 279.178901l0 5.332437c-120.065849 17.029397-232.735092 66.225433-232.735092 144.663867 0 109.056946 107.680833 162.037292 329.062993 162.037292 283.30724 0 342.824122-88.071225 342.824122-162.037292C737.252478 713.170502 598.437091 669.13489 518.966571 653.825634zM929.564253 767.698975c-17.545439 0-31.82261-14.277171-31.994625-31.82261-0.344028-23.393919-101.660339-88.415253-197.300185-99.768184-16.169326-1.892155-28.210314-15.653284-28.210314-31.82261l0-66.225433c0-9.804804 4.472367-18.921552 12.040988-24.942046 54.012431-43.175542 94.951789-137.26726 94.951789-218.801949 0-109.917017-74.310096-132.966907-136.579204-132.966907-17.717453 0-31.994625-14.277171-31.994625-31.994625s14.277171-31.994625 31.994625-31.994625c123.678145 0 200.568453 75.514195 200.568453 197.128171 0 94.779775-44.207626 200.396439-106.992777 258.365194l0 24.598018c91.855535 19.609609 225.682513 83.942886 225.682513 158.59701 0 17.545439-14.277171 31.650596-31.82261 31.82261C929.736267 767.698975 929.736267 767.698975 929.564253 767.698975z" fill="#272636"></path></g></g></svg>