<?xml version="1.0" standalone="no"?><!DOCTYPE svg PUBLIC "-//W3C//DTD SVG 1.1//EN" "http://www.w3.org/Graphics/SVG/1.1/DTD/svg11.dtd"><svg xmlns:xlink="http://www.w3.org/1999/xlink" xmlns="http://www.w3.org/2000/svg" version="1.1" width="200" height="200" viewBox="0 0 200 200"><defs><style type="text/css"><![CDATA[
@font-face {
  font-family: "ifont";
  src: url("//at.alicdn.com/t/font_1442373896_4754455.eot?#iefix") format("embedded-opentype"), url("//at.alicdn.com/t/font_1442373896_4754455.woff") format("woff"), url("//at.alicdn.com/t/font_1442373896_4754455.ttf") format("truetype"), url("//at.alicdn.com/t/font_1442373896_4754455.svg#ifont") format("svg");
}

]]></style></defs><g class="transform-group"><g transform="scale(0.1953125, 0.1953125)"><path d="M511.936 705.728c-105.888 0-192-86.112-192-192L319.936 257.952c0-105.888 86.112-192 192-192s192 86.112 192 192l0 255.776C703.936 619.584 617.824 705.728 511.936 705.728zM511.936 129.952c-70.592 0-128 57.408-128 128l0 255.776c0 70.592 57.408 128 128 128 70.592 0 128-57.408 128-128L639.936 257.952C639.936 187.36 582.528 129.952 511.936 129.952zM864 479.776 864 352c0-17.664-14.304-32-32-32s-32 14.336-32 32l0 127.776c0 160.16-129.184 290.464-288 290.464-158.784 0-288-130.304-288-290.464L224 352c0-17.664-14.336-32-32-32s-32 14.336-32 32l0 127.776c0 184.608 140.864 336.48 320 352.832L480 896 288 896c-17.664 0-32 14.304-32 32s14.336 32 32 32l448 0c17.696 0 32-14.304 32-32s-14.304-32-32-32l-192 0 0-63.36C723.136 816.256 864 664.384 864 479.776z" fill="#272636"></path></g></g></svg>