<?xml version="1.0" standalone="no"?><!DOCTYPE svg PUBLIC "-//W3C//DTD SVG 1.1//EN" "http://www.w3.org/Graphics/SVG/1.1/DTD/svg11.dtd"><svg xmlns:xlink="http://www.w3.org/1999/xlink" xmlns="http://www.w3.org/2000/svg" version="1.1" width="200" height="200" viewBox="0 0 200 200"><defs><style type="text/css"><![CDATA[
@font-face {
  font-family: "ifont";
  src: url("//at.alicdn.com/t/font_1442373896_4754455.eot?#iefix") format("embedded-opentype"), url("//at.alicdn.com/t/font_1442373896_4754455.woff") format("woff"), url("//at.alicdn.com/t/font_1442373896_4754455.ttf") format("truetype"), url("//at.alicdn.com/t/font_1442373896_4754455.svg#ifont") format("svg");
}

]]></style></defs><g class="transform-group"><g transform="scale(0.1953125, 0.1953125)"><path d="M911.808 422.848c-9.984-5.696-22.24-5.568-32.16 0.32L800 470.528l0-20.992c0-52.928-43.072-96-96-96l-56.416 0c16.48-23.104 26.4-51.168 26.4-81.664 0-77.92-63.392-141.312-141.312-141.312-48 0-90.4 24.192-115.936 60.896-25.536-36.832-68-61.088-116.096-61.088-77.92 0-141.312 63.392-141.312 141.312 0 30.816 10.176 59.168 27.008 82.4-50.336 2.912-90.496 44.384-90.496 95.424L95.84 800c0 52.928 43.072 96 96 96L704 896c52.928 0 96-43.072 96-96l0-51.872 79.648 47.36C884.672 798.496 890.336 800 896 800c5.472 0 10.912-1.408 15.808-4.192C921.824 790.112 928 779.488 928 768l0-317.344C928 439.168 921.824 428.544 911.808 422.848zM532.672 194.56c42.624 0 77.312 34.688 77.312 77.312s-34.688 77.312-77.312 77.312S455.36 314.496 455.36 271.872 490.048 194.56 532.672 194.56zM417.76 353.536l-2.336 0c0.352-0.512 0.8-0.928 1.184-1.408C416.928 352.608 417.408 353.024 417.76 353.536zM300.672 194.368c42.624 0 77.312 34.688 77.312 77.312s-34.688 77.312-77.312 77.312S223.328 314.304 223.328 271.68 258.016 194.368 300.672 194.368zM736 800c0 17.664-14.336 32-32 32L191.872 832c-17.632 0-32-14.336-32-32L159.872 449.536c0-17.632 14.368-32 32-32L704 417.536c17.664 0 32 14.368 32 32L736 800zM864 711.744l-50.304-29.92c-4.32-2.592-8.992-3.712-13.696-4.128l0-136.8c4.672-0.384 9.376-1.536 13.696-4.096L864 506.912 864 711.744z" fill="#272636"></path></g></g></svg>