<?xml version="1.0" standalone="no"?><!DOCTYPE svg PUBLIC "-//W3C//DTD SVG 1.1//EN" "http://www.w3.org/Graphics/SVG/1.1/DTD/svg11.dtd"><svg xmlns:xlink="http://www.w3.org/1999/xlink" xmlns="http://www.w3.org/2000/svg" version="1.1" width="200" height="200" viewBox="0 0 200 200"><defs><style type="text/css"><![CDATA[
@font-face {
  font-family: "ifont";
  src: url("//at.alicdn.com/t/font_1442373896_4754455.eot?#iefix") format("embedded-opentype"), url("//at.alicdn.com/t/font_1442373896_4754455.woff") format("woff"), url("//at.alicdn.com/t/font_1442373896_4754455.ttf") format("truetype"), url("//at.alicdn.com/t/font_1442373896_4754455.svg#ifont") format("svg");
}

]]></style></defs><g class="transform-group"><g transform="scale(0.1953125, 0.1953125)"><path d="M405.536 932.128c-8.8 0-17.568-3.584-23.904-10.688-83.232-93.216-217.856-94.112-220.64-94.112-0.096 0-0.096 0-0.192 0-17.568 0-31.904-14.176-32.032-31.744-0.128-17.664 14.016-32.064 31.648-32.256 6.656-0.352 165.664-0.192 268.96 115.488 11.776 13.184 10.624 33.408-2.56 45.184C420.736 929.44 413.12 932.128 405.536 932.128zM620.128 932.064c-7.776 0-15.584-2.816-21.76-8.544-12.96-12-13.76-32.256-1.728-45.216 106.976-115.52 262.752-115.392 268.896-115.136 17.696 0.192 31.872 14.656 31.68 32.32-0.192 17.568-14.464 31.68-32 31.68-0.096 0-0.16 0-0.256 0L864.96 827.168c-2.656 0-134.56 0.864-221.376 94.624C637.312 928.64 628.704 932.064 620.128 932.064zM563.712 769.312l-101.408 0c-3.232 0-6.368-0.48-9.344-1.408-108.256-13.888-200.256-76.704-259.552-177.44C124.576 473.472 108.8 321.888 154.208 213.248c4.896-11.68 16.224-19.392 28.896-19.648l9.632-0.096c60.96 0 117.888 11.52 169.696 34.304 37.44-68.448 80.192-120.384 127.328-154.688 2.496-2.176 5.344-4 8.512-5.344l0 0c9.888-4.288 21.376-3.36 30.432 2.528 1.568 1.024 3.04 2.176 4.384 3.456 47.264 34.688 88.832 85.856 126.464 155.744 52.832-23.872 111.072-35.968 173.632-35.968l9.792 0.096c12.672 0.256 24 7.968 28.896 19.648 45.408 108.672 29.664 260.256-39.232 377.248-59.296 100.672-151.264 163.52-259.488 177.44C570.112 768.8 566.976 769.312 563.712 769.312zM468 705.312l90.016 0c0.672-0.128 1.376-0.224 2.08-0.32 115.712-12.864 182.08-87.072 217.376-147.008 54.048-91.872 70.432-211.936 42.528-300.32-58.24 1.888-111.616 16.16-158.816 42.528-7.712 4.288-16.832 5.184-25.184 2.624-8.384-2.624-15.328-8.608-19.2-16.512-32.448-66.368-67.232-115.2-105.824-148.48-38.624 33.216-74.176 82.4-105.92 146.592-3.872 7.808-10.72 13.696-19.04 16.32-8.32 2.656-17.28 1.76-24.96-2.4C314.848 273.216 262.72 259.552 206.048 257.696c-27.904 88.384-11.52 208.448 42.528 300.288 35.296 59.936 101.632 134.112 217.312 147.008C466.592 705.088 467.296 705.184 468 705.312zM512.768 960c-17.664 0-32-14.304-32-32l0-190.688c0-17.696 14.336-32 32-32s32 14.304 32 32L544.768 928C544.736 945.696 530.432 960 512.768 960z" fill="#272636"></path></g></g></svg>