<?xml version="1.0" standalone="no"?><!DOCTYPE svg PUBLIC "-//W3C//DTD SVG 1.1//EN" "http://www.w3.org/Graphics/SVG/1.1/DTD/svg11.dtd"><svg width="200" height="200" viewBox="0 0 200 200" version="1.1" xmlns="http://www.w3.org/2000/svg" xmlns:xlink="http://www.w3.org/1999/xlink"><defs><style type="text/css"><![CDATA[
@font-face { font-family: ifont; src: url("http://at.alicdn.com/t/font_1442373896_4754455.eot?#iefix") format("embedded-opentype"), url("http://at.alicdn.com/t/font_1442373896_4754455.woff") format("woff"), url("http://at.alicdn.com/t/font_1442373896_4754455.ttf") format("truetype"), url("http://at.alicdn.com/t/font_1442373896_4754455.svg#ifont") format("svg"); }

]]></style></defs><g class="transform-group"><g transform="scale(0.1953125, 0.1953125)"><path d="M708.16 393.344 708.16 74.304c0 0-157.696-83.648-341.76-19.136L708.16 393.344zM738.048 580.992 738.048 87.488c0 0 186.432 83.648 238.976 286.784L738.048 580.992zM637.76 724.416l344.128-320.32c0 0 60.928 97.984-29.888 320.32L637.76 724.416zM462.016 765.056l464.832 0c0 0-56.128 150.592-256.96 212.672L462.016 765.056zM310.272 663.424l0 299.904c0 0 120.704 76.544 327.488 25.152L310.272 663.424zM41.344 678.976l235.456-209.152 0 475.584C276.8 945.408 134.592 896.512 41.344 678.976zM35.392 645.504c0 0-53.824-172.032 21.504-321.408l323.84 0L35.392 645.504zM77.248 290.56c0 0 68.096-152.896 253.312-224.64l221.056 224.64L77.248 290.56z" fill="#272636"></path></g></g></svg>