<?xml version="1.0" standalone="no"?><!DOCTYPE svg PUBLIC "-//W3C//DTD SVG 1.1//EN" "http://www.w3.org/Graphics/SVG/1.1/DTD/svg11.dtd"><svg xmlns:xlink="http://www.w3.org/1999/xlink" xmlns="http://www.w3.org/2000/svg" version="1.1" width="200" height="200" viewBox="0 0 200 200"><defs><style type="text/css"><![CDATA[
@font-face {
  font-family: "ifont";
  src: url("//at.alicdn.com/t/font_1442373896_4754455.eot?#iefix") format("embedded-opentype"), url("//at.alicdn.com/t/font_1442373896_4754455.woff") format("woff"), url("//at.alicdn.com/t/font_1442373896_4754455.ttf") format("truetype"), url("//at.alicdn.com/t/font_1442373896_4754455.svg#ifont") format("svg");
}

]]></style></defs><g class="transform-group"><g transform="scale(0.1953125, 0.1953125)"><path d="M430.20729 956.914497c-22.705863 0-44.035612-8.944734-59.86091-25.286074l-68.117588-70.181757c-12.213002-12.729044-12.040988-32.854695 0.688056-45.239711 14.277171-13.933143 22.18982-32.510667 22.533848-52.464304 0.172014-19.953637-7.396607-38.703175-21.32975-52.980346-27.866286-28.554342-77.062322-29.070385-105.44465-1.376113-6.020494 6.020494-15.309256 9.116748-22.705863 9.116748-8.428691-0.172014-16.685369-3.612296-22.533848-9.804804l-67.945574-70.009743c-15.48127-15.825298-24.081975-36.983034-23.737947-59.344868 0.172014-22.361834 9.288762-43.347556 25.286074-59.00084L530.147489 86.179069c32.166639-31.306568 87.211154-30.618512 118.345708 1.376113l68.117588 70.181757c12.213002 12.729044 12.040988 32.854695-0.688056 45.239711-14.277171 13.933143-22.18982 32.682681-22.533848 52.464304s7.396607 38.703175 21.157736 52.980346c27.866286 28.554342 77.062322 29.070385 105.616664 1.204099 6.020494-6.020494 14.621199-8.428691 22.705863-9.116748 8.428691 0.172014 16.685369 3.612296 22.533848 9.804804l67.945574 70.181757c15.48127 15.653284 24.081975 36.81102 23.737947 59.172854-0.172014 22.361834-9.116748 43.347556-25.11406 59.00084L488.692088 933.004536C472.86679 948.485805 452.053082 956.914497 430.20729 956.914497zM367.766168 837.192676l48.335965 49.884092c7.224593 7.396607 20.297665 7.568621 27.866286 0.172014l443.452377-434.507643c3.78431-3.78431 5.84848-8.600706 6.020494-13.933143 0-5.160423-1.892155-10.148833-5.676466-13.761129l-48.335965-49.884092c-21.32975 12.901058-45.755753 19.609609-71.213842 19.609609-37.67109 0-72.933983-14.793214-99.252142-41.799429-25.802117-26.490173-39.907274-61.409037-39.391231-98.392071 0.344028-26.146145 7.740635-51.088191 21.501764-72.589955l-48.335965-49.884092c-7.224593-7.396607-20.297665-7.568621-27.866286-0.172014L131.41878 566.442466c-3.78431 3.78431-5.84848 8.600706-6.020494 13.933143 0 5.332437 1.892155 10.148833 5.676466 13.933143l48.335965 49.884092c21.32975-12.901058 45.755753-19.609609 71.213842-19.609609 37.67109 0 72.933983 14.793214 99.252142 41.799429 25.802117 26.490173 39.907274 61.409037 39.391231 98.392071C388.923904 790.748866 381.527297 815.690912 367.766168 837.192676zM354.177054 583.127835c-8.256677 0-16.341341-3.096254-22.705863-9.460776-12.55703-12.55703-12.55703-32.682681 0-45.239711l178.722661-178.722661c12.55703-12.55703 32.682681-12.55703 45.239711 0 12.55703 12.55703 12.55703 32.682681 0 45.239711L376.882916 573.839073C370.518394 580.031581 362.433731 583.127835 354.177054 583.127835zM449.816899 678.76768c-8.256677 0-16.341341-3.096254-22.705863-9.460776-12.55703-12.55703-12.55703-32.682681 0-45.239711L605.833697 445.516546c12.55703-12.55703 32.682681-12.55703 45.239711 0 12.55703 12.55703 12.55703 32.682681 0 45.239711L472.350748 669.478918C466.15824 675.671426 457.901562 678.76768 449.816899 678.76768z" fill="#272636"></path></g></g></svg>