<?xml version="1.0" standalone="no"?><!DOCTYPE svg PUBLIC "-//W3C//DTD SVG 1.1//EN" "http://www.w3.org/Graphics/SVG/1.1/DTD/svg11.dtd"><svg width="200" height="200" viewBox="0 0 200 200" version="1.1" xmlns="http://www.w3.org/2000/svg" xmlns:xlink="http://www.w3.org/1999/xlink"><defs><style type="text/css"><![CDATA[
@font-face { font-family: ifont; src: url("http://at.alicdn.com/t/font_1442373896_4754455.eot?#iefix") format("embedded-opentype"), url("http://at.alicdn.com/t/font_1442373896_4754455.woff") format("woff"), url("http://at.alicdn.com/t/font_1442373896_4754455.ttf") format("truetype"), url("http://at.alicdn.com/t/font_1442373896_4754455.svg#ifont") format("svg"); }

]]></style></defs><g class="transform-group"><g transform="scale(0.1953125, 0.1953125)"><path d="M778.415418 736.753747l217.079229 0 0-131.563169-217.079229 0L778.415418 736.753747zM927.520343 324.522484c35.083512 0 65.781585 30.698073 65.781585 65.781585l0 181.995717-217.079229 0c-17.541756 0-32.890792 15.349036-32.890792 32.890792l0 131.563169c0 17.541756 15.349036 32.890792 32.890792 32.890792l217.079229 0 0 181.995717c0 35.083512-30.698073 65.781585-65.781585 65.781585L96.479657 1017.421842c-35.083512 0-65.781585-30.698073-65.781585-65.781585l0-629.310493L927.520343 322.329764zM866.124197 13.156317c15.349036-4.385439 28.505353-6.578158 39.468951-2.192719 17.541756 6.578158 24.119914 15.349036 24.119914 32.890792l-2.192719 247.777302-899.014989 0L866.124197 13.156317z" fill="#515151"></path></g></g></svg>