<?xml version="1.0" standalone="no"?><!DOCTYPE svg PUBLIC "-//W3C//DTD SVG 1.1//EN" "http://www.w3.org/Graphics/SVG/1.1/DTD/svg11.dtd"><svg xmlns:xlink="http://www.w3.org/1999/xlink" xmlns="http://www.w3.org/2000/svg" version="1.1" width="200" height="200" viewBox="0 0 200 200"><defs><style type="text/css"><![CDATA[
@font-face {
  font-family: "ifont";
  src: url("//at.alicdn.com/t/font_1442373896_4754455.eot?#iefix") format("embedded-opentype"), url("//at.alicdn.com/t/font_1442373896_4754455.woff") format("woff"), url("//at.alicdn.com/t/font_1442373896_4754455.ttf") format("truetype"), url("//at.alicdn.com/t/font_1442373896_4754455.svg#ifont") format("svg");
}

]]></style></defs><g class="transform-group"><g transform="scale(0.1953125, 0.1953125)"><path d="M447.924744 928.016126c-1.204099 0-2.408198-0.172014-3.440282-0.172014L157.908953 896.021502c-51.948261-1.032085-93.919704-43.691584-93.919704-95.983874L63.989249 191.967747c0-52.980346 43.175542-95.983874 95.983874-95.983874 1.204099 0 2.408198 0.172014 3.440282 0.172014l286.575508 31.82261c51.948261 1.032085 93.919704 43.691584 93.919704 95.983874l0 607.897867C543.908618 884.840585 500.90509 928.016126 447.924744 928.016126zM158.424996 159.973123c-17.029397 0.860071-30.446498 14.793214-30.446498 31.994625l0 607.897867c0 17.717453 14.449185 31.994625 31.994625 31.994625 1.204099 0 2.408198 0.172014 3.440282 0.172014l286.059466 31.82261c17.029397-0.860071 30.446498-14.793214 30.446498-31.994625L479.919368 223.962372c0-17.545439-14.449185-31.994625-31.994625-31.994625-1.204099 0-2.408198-0.172014-3.440282-0.172014L158.424996 159.973123zM609.101965 924.231816c-16.169326 0-29.930455-12.040988-31.82261-28.554342-2.064169-17.545439 10.664875-33.370737 28.382328-35.262893l254.752898-28.382328c1.204099-0.172014 2.236183-0.172014 3.440282-0.172014 17.717453 0 31.994625-14.277171 31.994625-31.994625L895.849488 191.967747c0-17.201411-13.589115-31.134554-30.446498-31.994625l-253.032757 28.0383c-17.201411 2.064169-33.370737-10.664875-35.262893-28.382328-2.064169-17.545439 10.664875-33.370737 28.382328-35.262893l255.096926-28.382328c1.032085-0.172014 2.236183-0.172014 3.440282-0.172014 52.980346 0 95.983874 43.175542 95.983874 95.983874L960.010751 799.865614c0 52.29229-41.971443 94.951789-93.919704 95.983874l-253.204771 28.210314C611.510163 924.231816 610.306064 924.231816 609.101965 924.231816zM408.01747 357.961364l-208.137074 0c-17.717453 0-31.994625-14.277171-31.994625-31.994625 0-17.717453 14.277171-31.994625 31.994625-31.994625l208.137074 0c17.717453 0 31.994625 14.277171 31.994625 31.994625C440.012095 343.512179 425.734924 357.961364 408.01747 357.961364zM407.845456 542.532505 199.536368 542.532505c-17.717453 0-31.994625-14.277171-31.994625-31.994625 0-17.717453 14.277171-31.994625 31.994625-31.994625l208.137074 0c17.717453 0 31.994625 14.277171 31.994625 31.994625C439.840081 528.255333 425.562909 542.532505 407.845456 542.532505zM408.01747 726.415589l-208.137074 0c-17.717453 0-31.994625-14.277171-31.994625-31.994625 0-17.717453 14.277171-31.994625 31.994625-31.994625l208.137074 0c17.717453 0 31.994625 14.277171 31.994625 31.994625C440.012095 712.138418 425.734924 726.415589 408.01747 726.415589zM823.947589 358.821435 615.810516 358.821435c-17.717453 0-31.994625-14.277171-31.994625-31.994625 0-17.717453 14.277171-31.994625 31.994625-31.994625l208.137074 0c17.717453 0 31.994625 14.277171 31.994625 31.994625C855.942214 344.544263 841.665043 358.821435 823.947589 358.821435zM823.947589 543.564589l-208.137074 0c-17.717453 0-31.994625-14.277171-31.994625-31.994625 0-17.717453 14.277171-31.994625 31.994625-31.994625l208.137074 0c17.717453 0 31.994625 14.277171 31.994625 31.994625C855.942214 529.115404 841.493029 543.564589 823.947589 543.564589zM823.947589 727.447673 615.810516 727.447673c-17.717453 0-31.994625-14.277171-31.994625-31.994625s14.277171-31.994625 31.994625-31.994625l208.137074 0c17.717453 0 31.994625 14.277171 31.994625 31.994625S841.665043 727.447673 823.947589 727.447673z" fill="#272636"></path></g></g></svg>