<?xml version="1.0" standalone="no"?><!DOCTYPE svg PUBLIC "-//W3C//DTD SVG 1.1//EN" "http://www.w3.org/Graphics/SVG/1.1/DTD/svg11.dtd"><svg xmlns:xlink="http://www.w3.org/1999/xlink" xmlns="http://www.w3.org/2000/svg" version="1.1" width="200" height="200" viewBox="0 0 200 200"><defs><style type="text/css"><![CDATA[
@font-face {
  font-family: "ifont";
  src: url("//at.alicdn.com/t/font_1442373896_4754455.eot?#iefix") format("embedded-opentype"), url("//at.alicdn.com/t/font_1442373896_4754455.woff") format("woff"), url("//at.alicdn.com/t/font_1442373896_4754455.ttf") format("truetype"), url("//at.alicdn.com/t/font_1442373896_4754455.svg#ifont") format("svg");
}

]]></style></defs><g class="transform-group"><g transform="scale(0.2, 0.2)"><path d="M676.4641 328.9919c11.3468 0 22.5756 0.8124 33.7085 2.0586C679.8779 189.9902 529.072 85.1832 356.9226 85.1832 164.4582 85.1832 6.8137 216.3433 6.8137 382.9174c0 96.1848 52.4486 175.1043 140.0968 236.3607l-35.0167 105.3126 122.392-61.3644c43.7921 8.6541 78.9327 17.5801 122.6349 17.5801 10.987 0 21.8771-0.5486 32.6852-1.3951-6.8376-23.3921-10.8071-47.9045-10.8071-73.3603C378.8007 453.1018 510.15 328.9919 676.4641 328.9919zM485.7476 226.9591c29.894 0 54.1265 24.2336 54.1265 54.1283s-24.2326 54.1273-54.1265 54.1273c-29.896 0-54.1285-24.2336-54.1285-54.1273S455.8536 226.9591 485.7476 226.9591zM240.7886 336.306c-29.894 0-54.1285-24.2336-54.1285-54.1273 0-29.8937 24.2346-54.1273 54.1285-54.1273 29.896 0 54.1295 24.2336 54.1295 54.1273C294.9181 312.0714 270.6846 336.306 240.7886 336.306zM993.5351 602.9842c0-139.9711-140.0618-254.0677-297.3786-254.0677-166.5829 0-297.7783 114.0966-297.7783 254.0677 0 140.2129 131.1954 254.0607 297.7783 254.0607 34.8608 0 70.0314-8.8 105.0481-17.5771l96.0358 52.5993-26.3372-87.4927C941.1815 751.8532 993.5351 681.9426 993.5351 602.9842zM604.6728 563.7458c-21.2884 0-38.5444-17.2593-38.5444-38.5459 0-21.2886 17.257-38.5439 38.5444-38.5439s38.5444 17.2563 38.5444 38.5439C643.2193 546.4875 625.9603 563.7458 604.6728 563.7458zM797.1392 565.9323c-21.2904 0-38.5454-17.2583-38.5454-38.5439 0-21.2896 17.256-38.5439 38.5454-38.5439 21.2874 0 38.5444 17.2553 38.5444 38.5439C835.6847 548.674 818.4267 565.9323 797.1392 565.9323z" fill="#272636"></path></g></g></svg>