<?xml version="1.0" standalone="no"?><!DOCTYPE svg PUBLIC "-//W3C//DTD SVG 1.1//EN" "http://www.w3.org/Graphics/SVG/1.1/DTD/svg11.dtd"><svg xmlns:xlink="http://www.w3.org/1999/xlink" xmlns="http://www.w3.org/2000/svg" version="1.1" width="200" height="200" viewBox="0 0 200 200"><defs><style type="text/css"><![CDATA[
@font-face {
  font-family: "ifont";
  src: url("//at.alicdn.com/t/font_1442373896_4754455.eot?#iefix") format("embedded-opentype"), url("//at.alicdn.com/t/font_1442373896_4754455.woff") format("woff"), url("//at.alicdn.com/t/font_1442373896_4754455.ttf") format("truetype"), url("//at.alicdn.com/t/font_1442373896_4754455.svg#ifont") format("svg");
}

]]></style></defs><g class="transform-group"><g transform="scale(0.1953125, 0.1953125)"><path d="M512 977c-256.815 0-465-208.185-465-465s208.185-465 465-465c256.815 0 465 208.185 465 465 0 256.815-208.185 465-465 465zM512 105.125c-224.715 0-406.875 182.16-406.875 406.875s182.16 406.875 406.875 406.875c224.715 0 406.875-182.16 406.875-406.875 0-224.715-182.16-406.875-406.875-406.875zM701.465 540.38h-378.93c-15.675 0-28.38-12.705-28.38-28.38s12.705-28.38 28.38-28.38h378.93c15.675 0 28.38 12.705 28.38 28.38s-12.705 28.38-28.38 28.38z" fill="#272636"></path></g></g></svg>