<?xml version="1.0" standalone="no"?><!DOCTYPE svg PUBLIC "-//W3C//DTD SVG 1.1//EN" "http://www.w3.org/Graphics/SVG/1.1/DTD/svg11.dtd"><svg xmlns:xlink="http://www.w3.org/1999/xlink" xmlns="http://www.w3.org/2000/svg" version="1.1" width="200" height="200" viewBox="0 0 200 200"><defs><style type="text/css"><![CDATA[
@font-face {
  font-family: "ifont";
  src: url("//at.alicdn.com/t/font_1442373896_4754455.eot?#iefix") format("embedded-opentype"), url("//at.alicdn.com/t/font_1442373896_4754455.woff") format("woff"), url("//at.alicdn.com/t/font_1442373896_4754455.ttf") format("truetype"), url("//at.alicdn.com/t/font_1442373896_4754455.svg#ifont") format("svg");
}

]]></style></defs><g class="transform-group"><g transform="scale(0.1953125, 0.1953125)"><path d="M512 958.016611c-245.919634 0-446.016611-200.064292-446.016611-446.016611 0-245.919634 200.095256-446.016611 446.016611-446.016611 245.952318 0 446.016611 200.064292 446.016611 446.016611S757.952318 958.016611 512 958.016611zM512 129.983389c-210.655557 0-382.016611 171.359333-382.016611 382.016611 0 210.624593 171.359333 382.016611 382.016611 382.016611 210.624593 0 382.016611-171.359333 382.016611-382.016611S722.624593 129.983389 512 129.983389zM463.99957 304.00043c0 26.509985 21.490445 48.00043 48.00043 48.00043s48.00043-21.490445 48.00043-48.00043-21.490445-48.00043-48.00043-48.00043S463.99957 277.490445 463.99957 304.00043zM512 768c-17.664722 0-32.00086-14.303454-32.00086-32.00086L479.99914 448c0-17.664722 14.336138-32.00086 32.00086-32.00086s32.00086 14.336138 32.00086 32.00086l0 287.99914C544.00086 753.696546 529.664722 768 512 768z" fill="#272636"></path></g></g></svg>