<?xml version="1.0" standalone="no"?><!DOCTYPE svg PUBLIC "-//W3C//DTD SVG 1.1//EN" "http://www.w3.org/Graphics/SVG/1.1/DTD/svg11.dtd"><svg xmlns:xlink="http://www.w3.org/1999/xlink" xmlns="http://www.w3.org/2000/svg" version="1.1" width="200" height="200" viewBox="0 0 200 200"><defs><style type="text/css"><![CDATA[
@font-face {
  font-family: "ifont";
  src: url("//at.alicdn.com/t/font_1442373896_4754455.eot?#iefix") format("embedded-opentype"), url("//at.alicdn.com/t/font_1442373896_4754455.woff") format("woff"), url("//at.alicdn.com/t/font_1442373896_4754455.ttf") format("truetype"), url("//at.alicdn.com/t/font_1442373896_4754455.svg#ifont") format("svg");
}

]]></style></defs><g class="transform-group"><g transform="scale(0.1953125, 0.1953125)"><path d="M926.224 69.814h-831.557c-53.047 0-96.031 42.585-96.031 95.099v696.938c0 52.513 42.985 95.099 96.031 95.099h831.558c53.049 0 96.031-42.585 96.031-95.099v-696.938c-0.001-52.58-42.985-95.099-96.032-95.099v0 0 0zM94.565 133.193h831.692c17.693 0 31.988 14.128 31.988 31.654v373.19c-51.549-41.913-140.881-98.426-248.109-98.426-98.83 0-196.327 75.904-290.559 149.273-72.207 56.18-146.879 114.358-199.26 114.358-73.505 0-136.383-53.514-157.742-73.972v-464.422c0-17.461 14.329-31.655 31.988-31.655v0 0 0zM926.258 893.506h-831.692c-17.66 0-31.988-14.195-31.988-31.655v-150.412c38.353 26.855 93.831 55.18 157.742 55.18 74.506 0 154.31-62.177 238.812-127.886 85.702-66.708 174.303-135.678 251.007-135.678 137.45 0 246.508 119.885 247.642 121.083l0.5-0.467v238.179c0 17.526-14.329 31.722-32.021 31.722v0 0-0.066zM318.182 513.649c70.773 0 128.153-56.778 128.153-126.818 0-70.108-57.378-126.954-128.153-126.954-70.74 0-128.119 56.846-128.119 126.954 0 70.039 57.379 126.818 128.119 126.818v0 0 0zM318.65 323.254c35.22 0 63.809 28.256 63.809 63.177s-28.589 63.177-63.809 63.177c-35.253 0-63.809-28.256-63.809-63.177 0-34.853 28.589-63.177 63.809-63.177v0 0 0zM318.65 323.254z" fill="#272636"></path></g></g></svg>