<?xml version="1.0" standalone="no"?><!DOCTYPE svg PUBLIC "-//W3C//DTD SVG 1.1//EN" "http://www.w3.org/Graphics/SVG/1.1/DTD/svg11.dtd"><svg width="200" height="200" viewBox="0 0 200 200" version="1.1" xmlns="http://www.w3.org/2000/svg" xmlns:xlink="http://www.w3.org/1999/xlink"><defs><style type="text/css"><![CDATA[
@font-face { font-family: ifont; src: url("http://at.alicdn.com/t/font_1442373896_4754455.eot?#iefix") format("embedded-opentype"), url("http://at.alicdn.com/t/font_1442373896_4754455.woff") format("woff"), url("http://at.alicdn.com/t/font_1442373896_4754455.ttf") format("truetype"), url("http://at.alicdn.com/t/font_1442373896_4754455.svg#ifont") format("svg"); }

]]></style></defs><g class="transform-group"><g transform="scale(0.1953125, 0.1953125)"><path d="M855.275227 193.256492l-37.554314-0.615007c-0.895393 0-50.620911-1.765203-137.533376-36.548404-89.14225-35.706223-146.632615-76.704986-147.172921-77.102029l-22.710234-16.180518L487.773226 78.991052c-0.538259 0.396019-58.030671 41.395806-147.174967 77.102029-86.911442 34.783201-136.637983 36.548404-137.442302 36.548404l-37.731346 0.615007 0 377.098567c0 189.301414 309.066101 389.134695 344.970846 389.491829 35.054377 0.346901 345.057827-200.192462 345.057827-389.489782L855.275227 193.256492zM469.628984 677.543314 308.506353 542.202882l49.535183-57.486272 103.363136 86.758969 196.174961-222.847437 57.93755 49.548486L469.628984 677.543314z" fill="#33475f"></path></g></g></svg>